[IMG]http://photos-c.ak.fbcdn.net/hphotos-ak-ash1/hs468.ash1/25681_404096416196_79526666196_4844144_6803678_n.jpg[/IMG]

[IMG]http://i981.photobucket.com/albums/ae294/fasamoo/plot.gif[/IMG]

Just days before leaving for Nashville, Rhett Ryan discovers that the desire to follow his dream conflicts with his desire to be with the woman he loves. While Samantha does love the singer-songwriter, she starts to realize what's best for her daughter and their future may not be what's best for him. Tommy Carson works around the clock to keep the peace in Prospect, but Donny, who is on a downward spiral, makes this even more difficult for the deputy. And Les just wants to fit in with his big brother's friends, but his overbearing mother desperately wants him to stand out. The subtle interconnections of these character's lives will bring them all closer together, culminating in Rhett's final performance.

[IMG]http://i981.photobucket.com/albums/ae294/fasamoo/screenshots.gif[/IMG]

[IMG]http://img710.imageshack.us/img710/4912/45b88e69.jpg[/IMG]
[IMG]http://img412.imageshack.us/img412/1455/30d9d76d.jpg[/IMG]
[IMG]http://img441.imageshack.us/img441/4982/9f89b8e8.jpg[/IMG]
[IMG]http://img199.imageshack.us/img199/61/8b5be5f8.jpg[/IMG]
[IMG]http://img693.imageshack.us/img693/1240/d48bb592.jpg[/IMG]

[IMG]http://i981.photobucket.com/albums/ae294/fasamoo/info.gif[/IMG]

General
Complete name                    : Small.Town.Saturday.Night.2010.DVDRiP.XviD-QCFsmall.town.saturday.night.2010.dvdrip.xvid-qcf.avi
IMDB Link                        : http://www.imdb.com/title/tt1063111/
Format                           : AVI
Format/Info                      : Audio Video Interleave
File size                        : 701 MiB
Duration                         : 1h 34mn
Overall bit rate                 : 1 039 Kbps
Writing application              : VirtualDubMod 1.5.10.2 (build 2540/release)
Writing library                  : VirtualDubMod build 2540/release

Video
ID                               : 0
Format                           : MPEG-4 Visual
Format profile                   : Advanced Simple@L5
Format settings, BVOP            : Yes
Format settings, QPel            : No
Format settings, GMC             : No warppoints
Format settings, Matrix          : Default (H.263)
Codec ID                         : XVID
Codec ID/Hint                    : XviD
Duration                         : 1h 34mn
Bit rate                         : 898 Kbps
Width                            : 624 pixels
Height                           : 352 pixels
Display aspect ratio             : 16:9
Frame rate                       : 23.976 fps
Resolution                       : 8 bits
Colorimetry                      : 4:2:0
Scan type                        : Progressive
Bits/(Pixel*Frame)               : 0.171
Stream size                      : 606 MiB (86%)
Writing library                  : XviD 1.2.1 (UTC 2008-12-04)

Audio
ID                               : 1
Format                           : MPEG Audio
Format version                   : Version 1
Format profile                   : Layer 3
Mode                             : Joint stereo
Format_Settings_ModeExtension    : MS Stereo
Codec ID                         : 55
Codec ID/Hint                    : MP3
Duration                         : 1h 34mn
Bit rate mode                    : Variable
Bit rate                         : 128 Kbps
Nominal bit rate                 : 135 Kbps
Channel(s)                       : 2 channels
Sampling rate                    : 48.0 KHz
Stream size                      : 86.2 MiB (12%)
Alignment                        : Aligned on interleaves
Interleave, duration             : 24 ms (0.58 video frame)
Interleave, preload duration     : 144 ms
Writing library                  : LAME3.98r
Encoding settings                : -m j -V 4 -q 3 -lowpass 17 --abr 135

Language                         : English
Subtitles                        : None
Genre                            : Drama

[IMG]http://i981.photobucket.com/albums/ae294/fasamoo/pleaseseed.gif[/IMG]